<?xml version="1.0" encoding="UTF-8"?>
<!DOCTYPE svg PUBLIC "-//W3C//DTD SVG 1.1//EN" "http://www.w3.org/Graphics/SVG/1.1/DTD/svg11.dtd">
<!-- Creator: CorelDRAW X5 -->
<svg xmlns="http://www.w3.org/2000/svg" xml:space="preserve" width="130mm" height="130mm" style="shape-rendering:geometricPrecision; text-rendering:geometricPrecision; image-rendering:optimizeQuality; fill-rule:evenodd; clip-rule:evenodd"
viewBox="0 0 13000 13000"
 xmlns:xlink="http://www.w3.org/1999/xlink">
 <defs>
  <style type="text/css">
   <![CDATA[
    .fil0 {fill:#252323;fill-rule:nonzero}
    .fil2 {fill:#D7262C;fill-rule:nonzero}
    .fil1 {fill:#FEFEFE;fill-rule:nonzero}
   ]]>
  </style>
 </defs>
 <g id="__x0023_Layer_x0020_1">
  <metadata id="CorelCorpID_0Corel-Layer"/>
  <polygon class="fil0" points="13000,13000 0,13000 0,0 13000,0 "/>
  <polygon class="fil1" points="7743,9284 7743,9999 7947,9999 7947,9284 "/>
  <polygon class="fil1" points="4111,9895 3770,9895 3646,9895 3646,9694 3826,9694 3888,9694 4167,9694 4167,9589 3990,9589 3725,9589 3646,9589 3646,9388 3770,9388 4111,9388 4212,9284 3770,9284 3646,9284 3533,9284 3442,9284 3442,9999 3533,9999 3646,9999 3770,9999 4212,9999 "/>
  <polygon class="fil1" points="10404,9388 10745,9388 10846,9284 10404,9284 10280,9284 10167,9284 10076,9284 10076,9999 10280,9999 10280,9642 10374,9642 10715,9642 10816,9537 10374,9537 10280,9537 10280,9388 "/>
  <path class="fil1" d="M9902 9281l-112 0 -82 0 -540 0 0 234 0 239 175 176 71 71 1 1 239 0 296 0 0 -588 -1 0c0,-2 1,-5 1,-7l0 -77c0,-27 -22,-49 -49,-49zm-155 617l0 0 -196 0 -180 -179 0 -322 376 0 0 500z"/>
  <polygon class="fil1" points="8402,9388 8743,9388 8844,9284 8402,9284 8266,9284 8164,9284 8063,9284 8063,9999 8164,9999 8266,9999 8402,9999 8743,9999 8844,9895 8402,9895 8266,9895 8266,9388 "/>
  <path class="fil1" d="M4323 9284l0 714 204 0 0 -233 344 0 204 0 0 -104 0 -250 0 -21 0 -55c0,-27 -22,-49 -49,-49l-146 0 -9 0 -39 0 -305 0 0 -1 -204 0zm204 105l0 0 79 0 162 0 90 0c7,0 13,6 13,13l0 70 0 100 0 88 -344 0 0 -272z"/>
  <polygon class="fil1" points="5960,9999 5960,9284 5756,9284 5756,9895 5505,9895 5379,9895 5379,9284 5175,9284 5175,9999 5327,9999 5379,9999 5606,9999 5668,9999 5756,9999 5947,9999 "/>
  <polygon class="fil1" points="7219,9898 7139,9898 7139,9284 6935,9284 6935,9999 6982,9999 6982,10002 7219,10002 7560,10002 7661,9898 "/>
  <path class="fil1" d="M6765 9556l0 -146 0 -44 0 -33c0,-27 -22,-49 -49,-49l-49 0 -45 0 -100 0 -459 0 0 714 755 0 0 -426 -53 0 0 -17 0 0zm-151 339l0 0 -346 0 0 -218 346 0 0 218zm8 -451l0 0 0 0 0 128 -355 0 0 -184 276 0 14 0 52 0c7,0 13,6 13,13l0 42z"/>
  <path class="fil1" d="M3256 9284l-149 0 -45 0 -619 0 0 532 125 128 79 80 0 -636 227 0 148 0 11 0 55 0c7,0 13,6 13,13l0 29 0 14 0 227 -226 0 -146 0 121 123 455 465 0 -249 -13 -12 -183 -188 -16 -16 211 0 0 -381c0,-2 1,-3 1,-4l0 -77c0,-27 -22,-49 -49,-49z"/>
  <polygon class="fil1" points="6392,10494 6231,10606 6179,10642 6128,10606 5967,10494 5852,10414 5763,10352 5763,10508 5763,11066 5967,11066 5967,10651 6179,10798 6392,10651 6392,11066 6596,11066 6596,10508 6596,10352 6507,10414 "/>
  <polygon class="fil1" points="7040,10456 7381,10456 7482,10352 7040,10352 6916,10352 6803,10352 6712,10352 6712,11066 6803,11066 6916,11066 7040,11066 7482,11066 7381,10962 7040,10962 6916,10962 6916,10761 7097,10761 7159,10761 7438,10761 7438,10657 7260,10657 6996,10657 6916,10657 6916,10456 "/>
  <path class="fil1" d="M5590 10352l-724 0 0 714 204 0 0 -305 366 0 0 305 204 0 0 -665c0,-27 -22,-49 -49,-49zm-155 305l0 0 -366 0 0 -201 353 0c7,0 13,6 13,13l0 188z"/>
  <polygon class="fil1" points="8847,10456 9188,10456 9289,10352 8847,10352 8712,10352 8712,10351 8508,10351 8508,10657 8508,10761 8712,10761 9076,10761 9076,10962 8940,10962 8498,10962 8599,11066 8940,11066 9178,11066 9178,11066 9280,11066 9280,10761 9280,10657 9076,10657 8712,10657 8712,10456 "/>
  <polygon class="fil1" points="4279,10456 4620,10456 4721,10352 4279,10352 4042,10352 3920,10352 3920,11066 4124,11066 4124,11066 4320,11066 4383,11066 4517,11066 4517,11066 4721,11066 4721,10671 4517,10671 4517,10961 4484,10961 4219,10961 4124,10961 4124,10456 "/>
  <path class="fil1" d="M8189 10748l188 0 0 -123 0 -155 0 -14 0 -26 0 -29c0,-23 -16,-42 -38,-47l0 -2 -11 0 -47 0 -78 0 -29 0 -115 0 -352 0 0 0 -127 0 0 714 204 0 0 -610 213 0 99 0 30 0 36 0c7,0 13,6 13,13l0 8 0 35 0 113 -178 0 -155 0 -12 11 102 113 287 318 257 0 -130 -145 -156 -173z"/>
  <path class="fil2" d="M12109 2641c0,0 -1444,478 -4509,2214 -1817,1030 -3384,2212 -3384,2212 0,0 240,146 445,225 1270,491 2996,777 3827,776 192,0 336,-16 416,-48 1151,-460 2317,-3106 2662,-4315l0 0c0,0 0,0 0,0 0,0 -1203,577 -2419,1255 -1490,830 -3049,1791 -3049,1791l1 0c0,0 0,0 0,0l3772 -1611c-2,4 -661,1906 -1663,2175 -188,50 -406,69 -636,66 -921,-13 -2036,-373 -2203,-429 -14,-5 -21,-7 -21,-7l0 0c0,0 1915,-1439 6444,-3661 143,-70 322,-440 317,-643l0 0c0,0 0,0 0,0z"/>
  <path class="fil1" d="M2512 5608c246,486 647,1239 993,1723 538,754 1505,1190 1505,1190 0,0 -26,-28 -69,-77 -29,-32 -66,-74 -108,-122 -21,-24 -44,-50 -67,-77 -235,-273 -575,-689 -714,-963 -116,-229 28,-531 974,-1256 857,-655 3938,-3334 6887,-4054 0,0 0,0 0,0 0,0 -273,-46 -754,-46 -663,0 -1721,88 -3001,504 -788,256 -1948,1875 -4069,3635 -254,211 -1072,-541 -1773,-689 0,0 126,96 196,233z"/>
  <path class="fil1" d="M879 4430c-11,-14 -16,-21 -16,-21 0,0 200,974 474,1474 275,500 1672,1049 1672,1049 -678,-656 -1971,-2299 -2130,-2502z"/>
 </g>
</svg>
